HIERARCHY
ROOT Hips
{
	OFFSET 0.00000 0.00000 0.00000
	CHANNELS 6 Xposition Yposition Zposition Zrotation Yrotation Xrotation 
	JOINT LHipJoint
	{
		OFFSET 0 0 0
		CHANNELS 3 Zrotation Yrotation Xrotation
		JOINT LeftHip
		{
			OFFSET 1.62964 -1.40469 0.78906
			CHANNELS 3 Zrotation Yrotation Xrotation
			JOINT LeftKnee
			{
				OFFSET 2.29640 -6.30932 0.00000
				CHANNELS 3 Zrotation Yrotation Xrotation
				JOINT LeftAnkle
				{
					OFFSET 2.29451 -6.30412 0.00000
					CHANNELS 3 Zrotation Yrotation Xrotation
					JOINT LeftToe
					{
						OFFSET 0.03611 -0.09921 1.56387
						CHANNELS 3 Zrotation Yrotation Xrotation
						End Site
						{
							OFFSET 0.00000 -0.00000 0.80291
						}
					}
				}
			}
		}
	}
	JOINT RHipJoint
	{
		OFFSET 0 0 0
		CHANNELS 3 Zrotation Yrotation Xrotation
		JOINT RightHip
		{
			OFFSET -1.73712 -1.40469 0.78906
			CHANNELS 3 Zrotation Yrotation Xrotation
			JOINT RightKnee
			{
				OFFSET -2.28137 -6.26801 0.00000
				CHANNELS 3 Zrotation Yrotation Xrotation
				JOINT RightAnkle
				{
					OFFSET -2.28681 -6.28298 0.00000
					CHANNELS 3 Zrotation Yrotation Xrotation
					JOINT RightToe
					{
						OFFSET -0.15927 -0.43759 1.61103
						CHANNELS 3 Zrotation Yrotation Xrotation
						End Site
						{
							OFFSET -0.00000 -0.00000 0.84630
						}
					}
				}
			}
		}
	}
	JOINT lowerback
	{
		OFFSET 0 0 0
		CHANNELS 3 Zrotation Yrotation Xrotation
		JOINT Chest
		{
			OFFSET -0.04227 2.04338 -0.00225
			CHANNELS 3 Zrotation Yrotation Xrotation
			JOINT Chest2
			{
				OFFSET -0.02148 2.04482 -0.04273
				CHANNELS 3 Zrotation Yrotation Xrotation
				JOINT lowerneck
				{
					OFFSET 0 0 0
					CHANNELS 3 Zrotation Yrotation Xrotation
					JOINT Neck
					{
						OFFSET 0.09180 1.44629 0.19359
						CHANNELS 3 Zrotation Yrotation Xrotation
						JOINT Head
						{
							OFFSET 0.00887 1.40645 0.14750
							CHANNELS 3 Zrotation Yrotation Xrotation
							End Site
							{
								OFFSET -0.00669 1.50671 0.03707
							}
						}
					}
				}
				JOINT LeftCollar
				{
					OFFSET 0 0 0
					CHANNELS 3 Zrotation Yrotation Xrotation
					JOINT LeftShoulder
					{
						OFFSET 2.17674 1.86763 -0.06520
CHANNELS 3 Zrotation Xrotation Yrotation
						JOINT LeftElbow
						{
OFFSET 0 -4.657760 0.000000
CHANNELS 3 Zrotation Xrotation Yrotation
							JOINT LeftWrist
							{
OFFSET 0 -3.555390 0.000000
CHANNELS 3 Zrotation Xrotation Yrotation
								JOINT lhand
								{
									OFFSET 0 0 0
CHANNELS 3 Zrotation Xrotation Yrotation
									JOINT LFingers
									{
OFFSET 0 -0.707260 0.000000
CHANNELS 3 Zrotation Xrotation Yrotation
										End Site
										{
OFFSET 0 -0.570220 0.000000
										}
									}
								}
								JOINT LThumb
								{
OFFSET 0 0.000000 0.000000
CHANNELS 3 Zrotation Xrotation Yrotation
									End Site
									{
OFFSET 0 -0.578920 0.578920
									}
								}
							}
						}
					}
				}
				JOINT RightCollar
				{
					OFFSET 0 0 0
					CHANNELS 3 Zrotation Yrotation Xrotation
					JOINT RightShoulder
					{
						OFFSET -2.80694 1.55459 -0.32496
CHANNELS 3 Zrotation Xrotation Yrotation
						JOINT RightElbow
						{
OFFSET 0 -4.719250 -0.000000
CHANNELS 3 Zrotation Xrotation Yrotation
							JOINT RightWrist
							{
OFFSET 0 -3.569900 0.000000
CHANNELS 3 Zrotation Xrotation Yrotation
								JOINT rhand
								{
									OFFSET 0 0 0
CHANNELS 3 Zrotation Xrotation Yrotation
									JOINT RFingers
									{
OFFSET 0 -0.507760 0.000000
CHANNELS 3 Zrotation Xrotation Yrotation
										End Site
										{
OFFSET 0 -0.409370 0.000000
										}
									}
								}
								JOINT RThumb
								{
OFFSET 0 0.000000 0.000000
CHANNELS 3 Zrotation Xrotation Yrotation
									End Site
									{
OFFSET 0 -0.415620 0.415620
									}
								}
							}
						}
					}
				}
			}
		}
	}
}
MOTION
Frames: 11
Frame Time: 0.008333333333333333
9.217500 16.348900 10.647500 179.662000 0.911300 -149.950000 0.000000 0.000000 0.000000 -14.206800 -19.575000 -24.410200 0.199700 2.877300 7.937400 0.188400 0.490000 -8.390700 4.674800 -13.008000 -39.398400 0.000000 0.000000 0.000000 18.300200 15.789700 -23.037700 -0.078200 -1.803900 4.964100 -0.915800 -4.217600 -20.075100 -2.028900 8.926000 -25.564300 -6.131500 -0.586700 -29.969400 -0.582300 2.327500 -2.605900 3.665800 1.163100 12.643300 -3.576400 -0.133000 -0.108700 6.935000 -1.006500 8.753600 2.885700 -0.569600 2.909200 -0.000000 0.000000 0.000000 3.859600 1.440300 -19.243000 13.715600 -22.326600 2.719100 22.944700 -8.308700 15.582600 0.000000 0.000000 0.000000 -7.125000 0.000000 0.000000 -3.160600 13.150400 -2.362400 -0.000000 0.000000 0.000000 2.718200 -0.221200 22.766400 -24.561600 -35.752500 -8.032400 -6.711700 0.048300 55.643600 0.000000 0.000000 0.000000 7.125000 0.000000 -0.000000 78.342300 74.333400 -61.989100
9.216832 16.348099 10.646765 179.622601 0.938212 -149.968698 0.000000 0.000000 0.000000 -14.258887 -19.616202 -24.374741 0.200034 2.879637 7.943877 0.188467 0.509900 -8.401051 4.736369 -13.080454 -39.670787 0.000000 0.000000 0.000000 18.246043 15.793039 -23.027016 -0.079001 -1.812848 4.988741 -0.920074 -4.193693 -20.101544 -2.009601 8.885933 -25.439292 -6.181049 -0.609939 -29.966195 -0.578560 2.308669 -2.576451 3.689840 1.147674 12.674752 -3.584547 -0.121381 -0.106630 6.931194 -0.990006 8.751597 2.886234 -0.561787 2.907130 0.000000 0.000000 0.000000 3.848114 1.413856 -19.245805 13.725416 -22.340757 2.722840 22.952313 -8.232573 15.438360 0.000000 0.000000 0.000000 -7.125000 0.000000 0.000000 -3.146176 13.303789 -2.341432 0.000000 0.000000 0.000000 2.629051 -0.189013 22.589973 -24.469179 -35.656340 -7.978443 -7.961516 1.099919 55.837924 0.000000 0.000000 0.000000 7.125000 0.000000 0.000000 78.782233 74.809861 -62.962656
9.216366 16.348069 10.646434 179.604678 0.955123 -149.990080 0.000000 0.000000 0.000000 -14.286310 -19.633378 -24.343845 0.199965 2.879256 7.942838 0.187225 0.532987 -8.384288 4.799046 -13.153680 -39.946899 0.000000 0.000000 0.000000 18.219100 15.801378 -23.006432 -0.079534 -1.819078 5.005899 -0.924582 -4.164754 -20.127283 -1.991913 8.849121 -25.324518 -6.213015 -0.622473 -29.949567 -0.572774 2.295810 -2.548210 3.708511 1.135806 12.698990 -3.580144 -0.116305 -0.112513 6.925441 -0.982471 8.751707 2.883648 -0.557866 2.907644 0.000000 0.000000 0.000000 3.842199 1.376406 -19.262736 13.732448 -22.350887 2.725505 22.939221 -8.170473 15.315058 0.000000 0.000000 0.000000 -7.125000 0.000000 0.000000 -3.147121 13.437313 -2.333215 0.000000 0.000000 0.000000 2.542587 -0.154511 22.434048 -24.401187 -35.585548 -7.938782 -8.075028 1.238650 56.119460 0.000000 0.000000 0.000000 7.125000 0.000000 0.000000 79.771947 74.882543 -64.016679
9.216094 16.348802 10.646496 179.608137 0.962239 -150.013987 0.000000 0.000000 0.000000 -14.289179 -19.626789 -24.317563 0.199500 2.876198 7.934394 0.184699 0.559387 -8.341009 4.862342 -13.227117 -40.224607 0.000000 0.000000 0.000000 18.219124 15.814952 -22.976093 -0.079800 -1.822604 5.015612 -0.929311 -4.131007 -20.152308 -1.975908 8.815716 -25.220451 -6.227342 -0.624299 -29.919637 -0.565008 2.288965 -2.521364 3.721725 1.127545 12.715856 -3.563385 -0.117729 -0.126254 6.917796 -0.983841 8.753934 2.877996 -0.557819 2.910724 0.000000 0.000000 0.000000 3.841878 1.328322 -19.293792 13.736695 -22.356992 2.727098 22.905745 -8.123209 15.213735 0.000000 0.000000 0.000000 -7.125000 0.000000 0.000000 -3.163284 13.549821 -2.337715 0.000000 0.000000 0.000000 2.458768 -0.117647 22.298425 -24.356952 -35.539421 -7.913024 -7.066241 0.475899 56.487122 0.000000 0.000000 0.000000 7.125000 0.000000 0.000000 81.304518 74.556382 -65.150061
9.214892 16.349203 10.645628 179.635516 0.990086 -150.011316 0.000000 0.000000 0.000000 -14.265006 -19.624518 -24.310151 0.199433 2.875797 7.933192 0.184566 0.616883 -8.362711 4.830689 -13.190523 -40.085976 0.000000 0.000000 0.000000 18.223865 15.885403 -22.954724 -0.079867 -1.823405 5.017949 -0.931448 -4.132409 -20.173944 -1.977444 8.818988 -25.230601 -6.195823 -0.604065 -29.887117 -0.566611 2.301920 -2.534118 3.706767 1.136627 12.687075 -3.560447 -0.123606 -0.137072 6.917062 -0.992055 8.760678 2.877195 -0.561625 2.915532 0.000000 0.000000 0.000000 3.857437 1.332796 -19.352156 13.735626 -22.355456 2.726697 22.894659 -8.264978 15.360646 0.000000 0.000000 0.000000 -7.125000 0.000000 0.000000 -3.180045 13.394095 -2.360619 0.000000 0.000000 0.000000 2.372357 -0.067029 22.163400 -24.227269 -35.403527 -7.837899 -6.594388 0.175799 56.811596 0.000000 0.000000 0.000000 7.125000 0.000000 0.000000 82.548191 74.412810 -66.222248
9.213453 16.348790 10.644421 179.648661 1.037995 -149.995088 0.000000 0.000000 0.000000 -14.265436 -19.616724 -24.308025 0.198926 2.872245 7.923213 0.184974 0.668313 -8.394310 4.779583 -13.130951 -39.861129 0.000000 0.000000 0.000000 18.212068 15.925082 -22.970532 -0.080205 -1.827189 5.028420 -0.932703 -4.109275 -20.172366 -1.979928 8.824192 -25.246851 -6.176538 -0.587390 -29.867304 -0.572856 2.318840 -2.559921 3.694960 1.149064 12.648499 -3.564185 -0.126093 -0.142231 6.916734 -0.995829 8.767694 2.877817 -0.563602 2.919154 0.000000 0.000000 0.000000 3.862423 1.357435 -19.354602 13.728458 -22.345143 2.723992 22.869205 -8.354761 15.534026 0.000000 0.000000 0.000000 -7.125000 0.000000 0.000000 -3.208261 13.211867 -2.393996 0.000000 0.000000 0.000000 2.286048 -0.006482 22.019191 -24.077422 -35.245809 -7.751319 -7.213414 0.641304 55.857882 0.000000 0.000000 0.000000 7.125000 0.000000 0.000000 78.915153 74.476270 -62.810778
9.211793 16.347595 10.642900 179.647833 1.105014 -149.965706 0.000000 0.000000 0.000000 -14.289723 -19.603590 -24.311367 0.198002 2.865714 7.904941 0.185900 0.713238 -8.435031 4.710446 -13.050072 -39.556343 0.000000 0.000000 0.000000 18.184257 15.934373 -23.022528 -0.080801 -1.833810 5.046628 -0.933092 -4.062240 -20.148102 -1.983261 8.831118 -25.268544 -6.169318 -0.574385 -29.860044 -0.583575 2.339373 -2.598094 3.686275 1.164599 12.600858 -3.574369 -0.125235 -0.141898 6.916772 -0.995209 8.774925 2.879806 -0.563757 2.921603 0.000000 0.000000 0.000000 3.857340 1.401626 -19.303692 13.715747 -22.326855 2.719194 22.829421 -8.393419 15.730775 0.000000 0.000000 0.000000 -7.125000 0.000000 0.000000 -3.247702 13.006444 -2.437447 0.000000 0.000000 0.000000 2.200042 0.062903 21.866160 -23.908109 -35.067005 -7.653688 -8.861782 1.828671 53.703285 0.000000 0.000000 0.000000 7.125000 0.000000 0.000000 70.700465 74.736526 -55.188495
9.211126 16.347060 10.642900 179.631139 1.136399 -149.936324 0.000000 0.000000 0.000000 -14.312027 -19.592571 -24.348028 0.198202 2.867116 7.909014 0.185900 0.697011 -8.428086 4.725003 -13.067234 -39.620650 0.000000 0.000000 0.000000 18.159950 15.891635 -23.085366 -0.080935 -1.834812 5.049433 -0.932291 -4.006213 -20.108302 -1.979321 8.822904 -25.242968 -6.181070 -0.582933 -29.874468 -0.591054 2.336635 -2.607510 3.683805 1.164465 12.596651 -3.581247 -0.118690 -0.141698 6.913967 -0.986127 8.777463 2.880407 -0.559483 2.921937 0.000000 0.000000 0.000000 3.871296 1.444230 -19.342891 13.740455 -22.362381 2.728610 22.751558 -8.365305 15.698321 0.000000 0.000000 0.000000 -7.125000 0.000000 0.000000 -3.297852 13.050851 -2.472104 0.000000 0.000000 0.000000 2.134198 0.053220 21.722120 -23.748977 -34.897455 -7.562537 -7.609962 0.925766 55.461749 0.000000 0.000000 0.000000 7.125000 0.000000 0.000000 77.427010 74.589147 -61.458011
9.210560 16.346903 10.642968 179.635321 1.155841 -149.914813 0.000000 0.000000 0.000000 -14.297369 -19.599076 -24.381335 0.199087 2.873447 7.926674 0.186584 0.693823 -8.441778 4.745037 -13.090727 -39.709085 0.000000 0.000000 0.000000 18.149880 15.918474 -23.122879 -0.081787 -1.844438 5.075989 -0.931900 -4.011960 -20.108031 -1.976887 8.817839 -25.227146 -6.173282 -0.582343 -29.889132 -0.594392 2.336566 -2.604913 3.676474 1.164468 12.606544 -3.583026 -0.118409 -0.149916 6.913798 -0.985328 8.778734 2.880803 -0.558906 2.923880 0.000000 0.000000 0.000000 3.893535 1.463289 -19.437771 13.771768 -22.407387 2.740524 22.723799 -8.358342 15.617235 0.000000 0.000000 0.000000 -7.125000 0.000000 0.000000 -3.311280 13.140982 -2.475995 0.000000 0.000000 0.000000 2.071025 0.031422 21.586464 -23.600215 -34.738413 -7.477579 -6.413995 0.015503 56.763361 0.000000 0.000000 0.000000 7.125000 0.000000 0.000000 82.376146 74.338652 -65.979380
9.210086 16.347084 10.643084 179.659551 1.164335 -149.900169 0.000000 0.000000 0.000000 -14.247345 -19.622372 -24.411891 0.200621 2.884445 7.957203 0.187940 0.703430 -8.475699 4.768700 -13.118386 -39.813487 0.000000 0.000000 0.000000 18.153493 16.011117 -23.137335 -0.083338 -1.862413 5.125539 -0.931933 -4.075973 -20.145385 -1.976311 8.816654 -25.223362 -6.146800 -0.572796 -29.904912 -0.593842 2.339497 -2.591125 3.664598 1.164852 12.629941 -3.579647 -0.124183 -0.166016 6.916139 -0.992554 8.778731 2.880941 -0.561911 2.927310 0.000000 0.000000 0.000000 3.923612 1.460236 -19.585766 13.809624 -22.461785 2.754917 22.743809 -8.371795 15.490190 0.000000 0.000000 0.000000 -7.125000 0.000000 0.000000 -3.289723 13.274269 -2.450604 0.000000 0.000000 0.000000 2.010623 -0.000878 21.457940 -23.461709 -34.589775 -7.398742 -5.300780 -0.878134 57.601272 0.000000 0.000000 0.000000 7.125000 0.000000 0.000000 85.526547 73.998522 -68.739719
9.209151 16.346016 10.642016 179.696279 1.199994 -149.844743 0.000000 0.000000 0.000000 -14.183706 -19.653824 -24.471324 0.202023 2.894128 7.984047 0.190611 0.738755 -8.548954 4.688700 -13.024095 -39.459297 0.000000 0.000000 0.000000 18.166381 16.078896 -23.219672 -0.085876 -1.889925 5.201465 -0.934137 -4.107492 -20.184383 -2.003690 8.873616 -25.400858 -6.113478 -0.545885 -29.979035 -0.596647 2.372619 -2.592794 3.657786 1.181680 12.659323 -3.556142 -0.136404 -0.173762 6.918743 -1.009516 8.774123 2.877001 -0.569324 2.927978 0.000000 0.000000 0.000000 3.951057 1.475996 -19.743495 13.864583 -22.540783 2.776018 22.771054 -8.404783 15.382878 0.000000 0.000000 0.000000 -7.125000 0.000000 0.000000 -3.264615 13.385521 -2.424227 0.000000 0.000000 0.000000 1.965481 0.033913 21.273967 -23.348988 -34.468106 -7.334903 -6.132766 -0.220371 56.526080 0.000000 0.000000 0.000000 7.125000 0.000000 0.000000 81.583042 74.213347 -65.054310
